<?xml version="1.0" standalone="no"?>
<!DOCTYPE svg PUBLIC "-//W3C//DTD SVG 20010904//EN"
 "http://www.w3.org/TR/2001/REC-SVG-20010904/DTD/svg10.dtd">
<svg version="1.0" xmlns="http://www.w3.org/2000/svg"
 width="16.000000pt" height="16.000000pt" viewBox="0 0 16.000000 16.000000"
 preserveAspectRatio="xMidYMid meet">
<metadata>
Created by potrace 1.11, written by Peter Selinger 2001-2013
</metadata>
<g transform="translate(0.000000,16.000000) scale(0.006154,-0.006154)"
fill="#000000" stroke="none">
<path d="M1546 2176 c-7 -6 -21 -31 -30 -56 -10 -25 -46 -112 -81 -195 -35
-82 -178 -422 -319 -755 -140 -333 -264 -627 -275 -653 -12 -27 -19 -52 -17
-56 3 -4 42 -7 88 -6 l83 0 38 90 c22 50 140 331 264 625 124 294 231 549 238
565 76 172 184 439 179 444 -10 11 -154 8 -168 -3z"/>
<path d="M525 1674 c-121 -102 -238 -200 -260 -218 -22 -19 -82 -69 -133 -112
-51 -42 -91 -80 -90 -85 2 -5 120 -106 263 -225 143 -119 280 -233 305 -254
108 -90 132 -110 139 -110 4 0 33 27 66 60 33 33 55 60 50 60 -6 0 -21 10 -35
23 -14 12 -108 92 -210 176 -200 166 -271 225 -307 256 l-23 20 141 115 c78
63 146 120 153 125 6 6 47 40 91 75 44 36 82 67 85 70 3 3 28 24 56 47 l51 43
-57 60 c-31 33 -59 60 -61 59 -2 0 -103 -83 -224 -185z"/>
<path d="M1776 1800 l-57 -59 268 -223 c345 -287 313 -255 286 -278 -13 -10
-44 -36 -70 -58 -45 -38 -314 -260 -413 -340 -25 -21 -50 -42 -57 -48 -9 -9 1
-25 42 -69 30 -31 60 -55 67 -52 12 4 373 303 524 434 12 10 56 45 97 78 42
33 78 65 80 71 3 6 -81 82 -186 170 -104 87 -195 164 -201 169 -24 22 -302
251 -312 257 -5 4 -36 -20 -68 -52z"/>
</g>
</svg>
